# This file uses centimeters as units for non-parametric coordinates.

mtllib ArrowHead_Bodkin.mtl
g default
v 0.565348 -2.234114 -0.565348
v -0.000000 -2.234114 -0.799523
v -0.565348 -2.234114 -0.565348
v -0.799523 -2.234114 0.000000
v -0.565348 -2.234114 0.565348
v -0.000000 -2.234114 0.799523
v 0.565348 -2.234114 0.565348
v 0.799523 -2.234114 0.000000
v 0.294210 1.998185 -0.294210
v 0.000000 1.998185 -0.416076
v -0.294210 1.998185 -0.294210
v -0.416076 1.998185 0.000000
v -0.294210 1.998185 0.294210
v 0.000000 1.998185 0.416076
v 0.294210 1.998185 0.294210
v 0.416076 1.998185 0.000000
v -0.000000 -2.234114 0.000000
v 0.555435 2.823137 -0.555435
v -0.000000 2.823137 -0.785504
v -0.555435 2.823138 -0.555435
v -0.785504 2.823138 -0.000000
v -0.555435 2.823137 0.555435
v -0.000000 2.823137 0.785504
v 0.555435 2.823137 0.555435
v 0.785504 2.823137 -0.000001
v 0.000003 9.144971 -0.000000
vt 0.610485 0.045765
vt 0.500000 0.000000
vt 0.389515 0.045765
vt 0.343750 0.156250
vt 0.389515 0.266735
vt 0.500000 0.312500
vt 0.610485 0.266735
vt 0.656250 0.156250
vt 0.375000 0.312500
vt 0.406250 0.312500
vt 0.437500 0.312500
vt 0.468750 0.312500
vt 0.500000 0.312500
vt 0.531250 0.312500
vt 0.562500 0.312500
vt 0.593750 0.312500
vt 0.625000 0.312500
vt 0.375000 0.688440
vt 0.406250 0.688440
vt 0.437500 0.688440
vt 0.468750 0.688440
vt 0.500000 0.688440
vt 0.531250 0.688440
vt 0.562500 0.688440
vt 0.593750 0.688440
vt 0.625000 0.688440
vt 0.610485 0.733265
vt 0.500000 0.687500
vt 0.389515 0.733265
vt 0.343750 0.843750
vt 0.389515 0.954235
vt 0.500000 1.000000
vt 0.610485 0.954235
vt 0.656250 0.843750
vt 0.500000 0.150000
vt 0.500000 0.843055
vt 0.610485 0.954235
vt 0.500000 1.000000
vt 0.389515 0.954235
vt 0.343750 0.843750
vt 0.389515 0.733265
vt 0.500000 0.687500
vt 0.610485 0.733265
vt 0.656250 0.843750
vn 0.707099 -0.004682 -0.707099
vn 0.000000 -0.004682 -0.999989
vn -0.000000 -0.001877 -0.999998
vn 0.707105 -0.001877 -0.707106
vn -0.707099 -0.004682 -0.707099
vn -0.707106 -0.001877 -0.707105
vn -0.999989 -0.004682 0.000000
vn -0.999998 -0.001877 -0.000000
vn -0.707099 -0.004682 0.707099
vn -0.707106 -0.001877 0.707105
vn -0.000000 -0.004682 0.999989
vn -0.000000 -0.001877 0.999998
vn 0.707099 -0.004682 0.707099
vn 0.707106 -0.001876 0.707106
vn 0.999989 -0.004682 -0.000000
vn 0.999998 -0.001877 -0.000000
vn 0.000000 -1.000000 0.000000
vn 0.000000 0.034830 -0.999393
vn 0.706677 0.034830 -0.706678
vn -0.706678 0.034831 -0.706678
vn -0.999393 0.034831 0.000000
vn -0.706678 0.034831 0.706678
vn 0.000001 0.034830 0.999393
vn 0.706678 0.034830 0.706678
vn 0.999393 0.034830 -0.000000
vn -0.000024 1.000000 0.000019
s 1
g pCylinder1
usemtl initialShadingGroup
f 1/9/1 2/10/2 10/19/3 9/18/4
f 2/10/2 3/11/5 11/20/6 10/19/3
f 3/11/5 4/12/7 12/21/8 11/20/6
f 4/12/7 5/13/9 13/22/10 12/21/8
f 5/13/9 6/14/11 14/23/12 13/22/10
f 6/14/11 7/15/13 15/24/14 14/23/12
f 7/15/13 8/16/15 16/25/16 15/24/14
f 8/16/15 1/17/1 9/26/4 16/25/16
f 2/2/2 1/1/1 17/35/17
f 3/3/5 2/2/2 17/35/17
f 4/4/7 3/3/5 17/35/17
f 5/5/9 4/4/7 17/35/17
f 6/6/11 5/5/9 17/35/17
f 7/7/13 6/6/11 17/35/17
f 8/8/15 7/7/13 17/35/17
f 1/1/1 8/8/15 17/35/17
f 9/33/4 10/32/3 19/38/18 18/37/19
f 10/32/3 11/31/6 20/39/20 19/38/18
f 11/31/6 12/30/8 21/40/21 20/39/20
f 12/30/8 13/29/10 22/41/22 21/40/21
f 13/29/10 14/28/12 23/42/23 22/41/22
f 14/28/12 15/27/14 24/43/24 23/42/23
f 15/27/14 16/34/16 25/44/25 24/43/24
f 16/34/16 9/33/4 18/37/19 25/44/25
f 18/37/19 19/38/18 26/36/26
f 19/38/18 20/39/20 26/36/26
f 20/39/20 21/40/21 26/36/26
f 21/40/21 22/41/22 26/36/26
f 22/41/22 23/42/23 26/36/26
f 23/42/23 24/43/24 26/36/26
f 24/43/24 25/44/25 26/36/26
f 25/44/25 18/37/19 26/36/26
