# This file uses centimeters as units for non-parametric coordinates.

mtllib ArrowFlight.mtl
g default
v -1.274410 -5.454507 1.274410
v 1.274410 -5.454507 1.274410
v 0.000000 16.988291 0.000000
v -1.274410 -5.454507 -1.274410
v 1.274410 -5.454507 -1.274410
v -0.379667 -5.454507 15.622993
v 0.379667 -5.454507 15.622993
v 0.379667 -5.454507 -15.622993
v -0.379667 -5.454507 -15.622993
v 15.622993 -5.454507 -0.379832
v 15.622993 -5.454507 0.379832
v -15.622993 -5.454507 -0.379832
v -15.622993 -5.454507 0.379832
v 0.000000 -27.642216 0.000000
v 0.379667 -41.065002 15.622993
v -0.379667 -41.065002 15.622993
v -0.379667 -41.065002 -15.622993
v 0.379667 -41.065002 -15.622993
v 15.622993 -41.065002 -0.379832
v 15.622993 -41.065002 0.379832
v -15.622993 -41.065002 0.379832
v -15.622993 -41.065002 -0.379832
vt 0.375000 0.000000
vt 0.625000 0.000000
vt 0.499371 0.319545
vt 0.500000 0.875000
vt 0.875000 0.000000
vt 0.125000 0.000000
vt 0.375000 0.000000
vt 0.625000 0.000000
vt 0.625000 0.750000
vt 0.375000 0.750000
vt 0.625000 0.000000
vt 0.875000 0.000000
vt 0.125000 0.000000
vt 0.375000 0.000000
vt 0.500000 0.000000
vt 0.625000 0.000000
vt 0.375000 0.000000
vt 0.500000 0.750000
vt 0.375000 0.750000
vt 0.625000 0.750000
vt 0.875000 0.000000
vt 0.625000 0.000000
vt 0.375000 0.000000
vt 0.125000 0.000000
vn 0.000000 0.571326 0.820723
vn 0.000000 0.571326 0.820723
vn 0.000000 0.571326 0.820723
vn 0.000000 0.571326 -0.820723
vn 0.000000 0.571326 -0.820723
vn 0.000000 0.571326 -0.820723
vn 0.820723 0.571326 0.000000
vn 0.820723 0.571326 0.000000
vn 0.820723 0.571326 0.000000
vn -0.820723 0.571326 0.000000
vn -0.820723 0.571326 0.000000
vn -0.820723 0.571326 0.000000
vn 0.000000 -0.758497 -0.651677
vn 0.000000 -0.758497 -0.651677
vn 0.000000 -0.758497 -0.651677
vn 0.999757 -0.000006 0.022061
vn 0.996257 0.060100 0.062124
vn 0.999824 -0.006982 0.017404
vn -0.996257 0.060100 0.062124
vn -0.999757 -0.000006 0.022061
vn -0.999824 -0.006982 0.017404
vn 0.996257 0.060100 -0.062124
vn 0.999757 -0.000006 -0.022061
vn 0.999824 -0.006982 -0.017404
vn 0.000000 -0.758497 0.651677
vn 0.000000 -0.758497 0.651677
vn 0.000000 -0.758497 0.651677
vn -0.999757 -0.000006 -0.022061
vn -0.996257 0.060100 -0.062124
vn -0.999824 -0.006982 -0.017404
vn -0.651677 -0.758497 0.000000
vn -0.651677 -0.758497 0.000000
vn -0.651677 -0.758497 0.000000
vn 0.022050 -0.000006 -0.999757
vn 0.062113 0.060099 -0.996258
vn 0.017393 -0.006982 -0.999824
vn 0.062113 0.060099 0.996258
vn 0.022050 -0.000006 0.999757
vn 0.017393 -0.006982 0.999824
vn 0.651677 -0.758497 0.000000
vn 0.651677 -0.758497 0.000000
vn 0.651677 -0.758497 0.000000
vn -0.022050 -0.000006 0.999757
vn -0.062113 0.060099 0.996258
vn -0.017393 -0.006982 0.999824
vn -0.062113 0.060099 -0.996258
vn -0.022050 -0.000006 -0.999757
vn -0.017393 -0.006982 -0.999824
vn 0.999727 -0.022203 0.007237
vn 0.999727 -0.022203 0.007237
vn 0.000000 0.000000 1.000000
vn 0.000000 0.000000 1.000000
vn 0.000000 0.000000 1.000000
vn 0.000000 0.000000 1.000000
vn -0.999727 -0.022203 0.007237
vn -0.999727 -0.022203 0.007237
vn -0.999727 -0.022203 -0.007237
vn -0.999727 -0.022203 -0.007237
vn 0.000000 0.000000 -1.000000
vn 0.000000 0.000000 -1.000000
vn 0.000000 0.000000 -1.000000
vn 0.000000 0.000000 -1.000000
vn 0.999727 -0.022203 -0.007237
vn 0.999727 -0.022203 -0.007237
vn 0.007226 -0.022203 -0.999727
vn 0.007226 -0.022203 -0.999727
vn 1.000000 0.000000 0.000000
vn 1.000000 0.000000 0.000000
vn 1.000000 0.000000 0.000000
vn 1.000000 0.000000 0.000000
vn 0.007226 -0.022203 0.999727
vn 0.007226 -0.022203 0.999727
vn -0.007226 -0.022203 0.999727
vn -0.007226 -0.022203 0.999727
vn -1.000000 0.000000 0.000000
vn -1.000000 0.000000 0.000000
vn -1.000000 0.000000 0.000000
vn -1.000000 0.000000 0.000000
vn -0.007226 -0.022203 -0.999727
vn -0.007226 -0.022203 -0.999727
s off
g pCube1
usemtl initialShadingGroup
f 6/7/1 7/8/2 3/3/3
f 3/3/4 8/9/5 9/10/6
f 11/11/7 10/12/8 3/3/9
f 12/13/10 13/14/11 3/3/12
f 14/15/13 15/16/14 16/17/15
s 1
f 2/2/16 3/3/17 7/8/18
s 2
f 3/3/19 1/1/20 6/7/21
s 3
f 3/3/22 5/4/23 8/9/24
s off
f 14/18/25 17/19/26 18/20/27
s 4
f 4/4/28 3/3/29 9/10/30
s off
f 14/15/31 19/21/32 20/22/33
s 5
f 5/5/34 3/3/35 10/12/36
s 6
f 3/3/37 2/2/38 11/11/39
s off
f 14/15/40 21/23/41 22/24/42
s 7
f 1/1/43 3/3/44 13/14/45
s 8
f 3/3/46 4/6/47 12/13/48
s 1
f 2/2/16 7/8/18 15/16/49 14/15/50
s off
f 7/8/51 6/7/52 16/17/53 15/16/54
s 2
f 6/7/21 1/1/20 14/15/55 16/17/56
s 4
f 4/4/28 9/10/30 17/19/57 14/18/58
s off
f 9/10/59 8/9/60 18/20/61 17/19/62
s 3
f 8/9/24 5/4/23 14/18/63 18/20/64
s 5
f 5/5/34 10/12/36 19/21/65 14/15/66
s off
f 10/12/67 11/11/68 20/22/69 19/21/70
s 6
f 11/11/39 2/2/38 14/15/71 20/22/72
s 7
f 1/1/43 13/14/45 21/23/73 14/15/74
s off
f 13/14/75 12/13/76 22/24/77 21/23/78
s 8
f 12/13/48 4/6/47 14/15/79 22/24/80
g default
v -1.274410 -5.454507 1.274410
v 1.274410 -5.454507 1.274410
v 0.000000 16.988291 0.000000
v -1.274410 -5.454507 -1.274410
v 1.274410 -5.454507 -1.274410
v -0.379667 -5.454507 15.622993
v 0.379667 -5.454507 15.622993
v 0.379667 -5.454507 -15.622993
v -0.379667 -5.454507 -15.622993
v 15.622993 -5.454507 -0.379832
v 15.622993 -5.454507 0.379832
v -15.622993 -5.454507 -0.379832
v -15.622993 -5.454507 0.379832
v 0.000000 -27.642216 0.000000
v 0.379667 -41.065002 15.622993
v -0.379667 -41.065002 15.622993
v -0.379667 -41.065002 -15.622993
v 0.379667 -41.065002 -15.622993
v 15.622993 -41.065002 -0.379832
v 15.622993 -41.065002 0.379832
v -15.622993 -41.065002 0.379832
v -15.622993 -41.065002 -0.379832
vt 0.375000 0.000000
vt 0.625000 0.000000
vt 0.499371 0.319545
vt 0.500000 0.875000
vt 0.875000 0.000000
vt 0.125000 0.000000
vt 0.375000 0.000000
vt 0.625000 0.000000
vt 0.625000 0.750000
vt 0.375000 0.750000
vt 0.625000 0.000000
vt 0.875000 0.000000
vt 0.125000 0.000000
vt 0.375000 0.000000
vt 0.500000 0.000000
vt 0.625000 0.000000
vt 0.375000 0.000000
vt 0.500000 0.750000
vt 0.375000 0.750000
vt 0.625000 0.750000
vt 0.875000 0.000000
vt 0.625000 0.000000
vt 0.375000 0.000000
vt 0.125000 0.000000
vn 0.000000 0.571326 0.820723
vn 0.000000 0.571326 0.820723
vn 0.000000 0.571326 0.820723
vn 0.000000 0.571326 -0.820723
vn 0.000000 0.571326 -0.820723
vn 0.000000 0.571326 -0.820723
vn 0.820723 0.571326 0.000000
vn 0.820723 0.571326 0.000000
vn 0.820723 0.571326 0.000000
vn -0.820723 0.571326 0.000000
vn -0.820723 0.571326 0.000000
vn -0.820723 0.571326 0.000000
vn 0.000000 -0.758497 -0.651677
vn 0.000000 -0.758497 -0.651677
vn 0.000000 -0.758497 -0.651677
vn 0.999757 -0.000006 0.022061
vn 0.996257 0.060100 0.062124
vn 0.999824 -0.006982 0.017404
vn -0.996257 0.060100 0.062124
vn -0.999757 -0.000006 0.022061
vn -0.999824 -0.006982 0.017404
vn 0.996257 0.060100 -0.062124
vn 0.999757 -0.000006 -0.022061
vn 0.999824 -0.006982 -0.017404
vn 0.000000 -0.758497 0.651677
vn 0.000000 -0.758497 0.651677
vn 0.000000 -0.758497 0.651677
vn -0.999757 -0.000006 -0.022061
vn -0.996257 0.060100 -0.062124
vn -0.999824 -0.006982 -0.017404
vn -0.651677 -0.758497 0.000000
vn -0.651677 -0.758497 0.000000
vn -0.651677 -0.758497 0.000000
vn 0.022050 -0.000006 -0.999757
vn 0.062113 0.060099 -0.996258
vn 0.017393 -0.006982 -0.999824
vn 0.062113 0.060099 0.996258
vn 0.022050 -0.000006 0.999757
vn 0.017393 -0.006982 0.999824
vn 0.651677 -0.758497 0.000000
vn 0.651677 -0.758497 0.000000
vn 0.651677 -0.758497 0.000000
vn -0.022050 -0.000006 0.999757
vn -0.062113 0.060099 0.996258
vn -0.017393 -0.006982 0.999824
vn -0.062113 0.060099 -0.996258
vn -0.022050 -0.000006 -0.999757
vn -0.017393 -0.006982 -0.999824
vn 0.999727 -0.022203 0.007237
vn 0.999727 -0.022203 0.007237
vn 0.000000 0.000000 1.000000
vn 0.000000 0.000000 1.000000
vn 0.000000 0.000000 1.000000
vn 0.000000 0.000000 1.000000
vn -0.999727 -0.022203 0.007237
vn -0.999727 -0.022203 0.007237
vn -0.999727 -0.022203 -0.007237
vn -0.999727 -0.022203 -0.007237
vn 0.000000 0.000000 -1.000000
vn 0.000000 0.000000 -1.000000
vn 0.000000 0.000000 -1.000000
vn 0.000000 0.000000 -1.000000
vn 0.999727 -0.022203 -0.007237
vn 0.999727 -0.022203 -0.007237
vn 0.007226 -0.022203 -0.999727
vn 0.007226 -0.022203 -0.999727
vn 1.000000 0.000000 0.000000
vn 1.000000 0.000000 0.000000
vn 1.000000 0.000000 0.000000
vn 1.000000 0.000000 0.000000
vn 0.007226 -0.022203 0.999727
vn 0.007226 -0.022203 0.999727
vn -0.007226 -0.022203 0.999727
vn -0.007226 -0.022203 0.999727
vn -1.000000 0.000000 0.000000
vn -1.000000 0.000000 0.000000
vn -1.000000 0.000000 0.000000
vn -1.000000 0.000000 0.000000
vn -0.007226 -0.022203 -0.999727
vn -0.007226 -0.022203 -0.999727
s off
g pCube1
f 28/31/81 29/32/82 25/27/83
f 25/27/84 30/33/85 31/34/86
f 33/35/87 32/36/88 25/27/89
f 34/37/90 35/38/91 25/27/92
f 36/39/93 37/40/94 38/41/95
s 1
f 24/26/96 25/27/97 29/32/98
s 2
f 25/27/99 23/25/100 28/31/101
s 3
f 25/27/102 27/28/103 30/33/104
s off
f 36/42/105 39/43/106 40/44/107
s 4
f 26/28/108 25/27/109 31/34/110
s off
f 36/39/111 41/45/112 42/46/113
s 5
f 27/29/114 25/27/115 32/36/116
s 6
f 25/27/117 24/26/118 33/35/119
s off
f 36/39/120 43/47/121 44/48/122
s 7
f 23/25/123 25/27/124 35/38/125
s 8
f 25/27/126 26/30/127 34/37/128
s 1
f 24/26/96 29/32/98 37/40/129 36/39/130
s off
f 29/32/131 28/31/132 38/41/133 37/40/134
s 2
f 28/31/101 23/25/100 36/39/135 38/41/136
s 4
f 26/28/108 31/34/110 39/43/137 36/42/138
s off
f 31/34/139 30/33/140 40/44/141 39/43/142
s 3
f 30/33/104 27/28/103 36/42/143 40/44/144
s 5
f 27/29/114 32/36/116 41/45/145 36/39/146
s off
f 32/36/147 33/35/148 42/46/149 41/45/150
s 6
f 33/35/119 24/26/118 36/39/151 42/46/152
s 7
f 23/25/123 35/38/125 43/47/153 36/39/154
s off
f 35/38/155 34/37/156 44/48/157 43/47/158
s 8
f 34/37/128 26/30/127 36/39/159 44/48/160
